<svg xmlns="http://www.w3.org/2000/svg" viewBox="0 0 821.04 254.00" width="100%" preserveAspectRatio="xMidYMid meet" xmlns:c2pa="http://c2pa.org/manifest"><metadata><c2pa:manifest>AAAWgmp1bWIAAAAeanVtZGMycGEAEQAQgAAAqgA4m3EDYzJwYQAAABZcanVtYgAAAEdqdW1kYzJtYQARABCAAACqADibcQN1cm46YzJwYTpmNjQzNjQ1Yy1lZjNlLTRmOTMtYTBhNi1hMzQxMmNlYjhiOWQAAAADl2p1bWIAAAApanVtZGMyYXMAEQAQgAAAqgA4m3EDYzJwYS5hc3NlcnRpb25zAAAAALxqdW1iAAAARGp1bWRjYm9yABEAEIAAAKoAOJtxE2MycGEuaW5ncmVkaWVudC52MwAAAAAYYzJzaC7vcBVOOzv4nZzmrpuHbQ0AAABwY2JvcqNpZGM6Zm9ybWF0bWltYWdlL3N2Zyt4bWxqaW5zdGFuY2VJRHgseG1wOmlpZDplYzk4NTE1Ni0yZmNhLTQ0NjYtOTg2Ny1iN2U3NGYxM2VmY2FscmVsYXRpb25zaGlwaHBhcmVudE9mAAAB4mp1bWIAAABBanVtZGNib3IAEQAQgAAAqgA4m3ETYzJwYS5hY3Rpb25zLnYyAAAAABhjMnNomOCMz8+LLf8bDr9V9zovoQAAAZljYm9yomdhY3Rpb25zgqJmYWN0aW9ua2MycGEub3BlbmVkanBhcmFtZXRlcnOha2luZ3JlZGllbnRzgaJjdXJseC1zZWxmI2p1bWJmPWMycGEuYXNzZXJ0aW9ucy9jMnBhLmluZ3JlZGllbnQudjNkaGFzaFgg1UEnxM/EoQvudbPR0h5suvNJhnrbFkJY5O9wSOrTL/ukZmFjdGlvbngdY29tLmFudGhyb3BpYy5jbGF1ZGUucHJvdmlkZWRqcGFyYW1ldGVyc6F4H2NvbS5hbnRocm9waWMub3JpZ2luLWNvbmZpZGVuY2VndW5rbm93bmtkZXNjcmlwdGlvbnhmQ2xhdWRlIHByb3ZpZGVkIHRoaXMgZmlsZSBhdCB0aGUgcmVxdWVzdCBvZiBhIHVzZXIgYW5kIG1heSBoYXZlIGNyZWF0ZWQgb3IgbW9kaWZpZWQgdGhlIGZpbGUgY29udGVudHMubXNvZnR3YXJlQWdlbnShZG5hbWVmQ2xhdWRlcmFsbEFjdGlvbnNJbmNsdWRlZPUAAADIanVtYgAAAEBqdW1kY2JvcgARABCAAACqADibcRNjMnBhLmhhc2guZGF0YQAAAAAYYzJzaJkSeYgDUfZn93lq06I5nVkAAACAY2JvcqVjYWxnZnNoYTI1NmNwYWRNAAAAAAAAAAAAAAAAAGRoYXNoWCBCNZV/bSPl0V/h7u54NFW2TmPOvOEepHbWAzbXT0CqBGRuYW1lbmp1bWJmIG1hbmlmZXN0amV4Y2x1c2lvbnOBomVzdGFydBi0Zmxlbmd0aBkeBAAAAj5qdW1iAAAAJ2p1bWRjMmNsABEAEIAAAKoAOJtxA2MycGEuY2xhaW0udjIAAAACD2Nib3KlY2FsZ2ZzaGEyNTZpc2lnbmF0dXJleE1zZWxmI2p1bWJmPS9jMnBhL3VybjpjMnBhOmY2NDM2NDVjLWVmM2UtNGY5My1hMGE2LWEzNDEyY2ViOGI5ZC9jMnBhLnNpZ25hdHVyZWppbnN0YW5jZUlEeCx4bXA6aWlkOjI4NDc4MTc3LWNiMGYtNGZjNy04YWI4LThkMTk2M2Y1NjY2ZHJjcmVhdGVkX2Fzc2VydGlvbnODomN1cmx4LXNlbGYjanVtYmY9YzJwYS5hc3NlcnRpb25zL2MycGEuaW5ncmVkaWVudC52M2RoYXNoWCDVQSfEz8ShC+51s9HSHmy680mGetsWQljk73BI6tMv+6JjdXJseCpzZWxmI2p1bWJmPWMycGEuYXNzZXJ0aW9ucy9jMnBhLmFjdGlvbnMudjJkaGFzaFggPfjTJxmDrr65i3VT3I27TORTrpk10okLIrMUEMO4JieiY3VybHgpc2VsZiNqdW1iZj1jMnBhLmFzc2VydGlvbnMvYzJwYS5oYXNoLmRhdGFkaGFzaFggDB4RrKGCMocQ0R47GTPxroLtr6rmKFUuG7Y2r2vg+/l0Y2xhaW1fZ2VuZXJhdG9yX2luZm+jZG5hbWVvQW50aHJvcGljIEZpbGVzZ3ZlcnNpb25lMS4wLjBrc3BlY1ZlcnNpb25lMi40LjAAABA4anVtYgAAAChqdW1kYzJjcwARABCAAACqADibcQNjMnBhLnNpZ25hdHVyZQAAABAIY2JvctKEWQISogEmGCFZAgowggIGMIIBjaADAgECAhRA5aAK7sI50L64g/oGQgU9Z1UTADAKBggqhkjOPQQDAzBJMRcwFQYDVQQKEw5BbnRocm9waWMsIFBCQzEuMCwGA1UEAxMlQW50aHJvcGljIENvbnRlbnQgQ3JlZGVudGlhbHMgUm9vdCBDQTAeFw0yNjA4MDcxODQzNTZaFw0yODA4MDYxOTQzNTZaMEQxFzAVBgNVBAoTDkFudGhyb3BpYywgUEJDMSkwJwYDVQQDEyBBbnRocm9waWMgQ2xhdWRlIENvbnRlbnQgU2lnbmluZzBZMBMGByqGSM49AgEGCCqGSM49AwEHA0IABJh6CmvLUBgFFNU0vUKlOVtE6djd17L5SuwX0LemFisBM3dkd/3cyjxFA3Qo5S46fX0/ihY0VZ7mfb9KF703t5OjWDBWMA4GA1UdDwEB/wQEAwIHgDAVBgNVHSUEDjAMBgorBgEEAYPoXgIBMAwGA1UdEwEB/wQCMAAwHwYDVR0jBBgwFoAUzlHiBIFOZFsj+OPEz5o+nMHXXMIwCgYIKoZIzj0EAwMDZwAwZAIwMXMdFJ4BetLLVY7ORuE9noqbbAZOZn/aArXyTwFAZfKrPzxF2vPoJNf1+UCdg1XGAjBwX1zd9WGqYkqmL5SFqw1QySjr1zJfpJM9+1rdDwSPLMOPOjKuiXjoU/pUUeG9RwmhY3BhZFkNngAAAAAAAAAAAAAAAAAAAAAAAAAAAAAAAAAAAAAAAAAAAAAAAAAAAAAAAAAAAAAAAAAAAAAAAAAAAAAAAAAAAAAAAAAAAAAAAAAAAAAAAAAAAAAAAAAAAAAAAAAAAAAAAAAAAAAAAAAAAAAAAAAAAAAAAAAAAAAAAAAAAAAAAAAAAAAAAAAAAAAAAAAAAAAAAAAAAAAAAAAAAAAAAAAAAAAAAAAAAAAAAAAAAAAAAAAAAAAAAAAAAAAAAAAAAAAAAAAAAAAAAAAAAAAAAAAAAAAAAAAAAAAAAAAAAAAAAAAAAAAAAAAAAAAAAAAAAAAAAAAAAAAAAAAAAAAAAAAAAAAAAAAAAAAAAAAAAAAAAAAAAAAAAAAAAAAAAAAAAAAAAAAAAAAAAAAAAAAAAAAAAAAAAAAAAAAAAAAAAAAAAAAAAAAAAAAAAAAAAAAAAAAAAAAAAAAAAAAAAAAAAAAAAAAAAAAAAAAAAAAAAAAAAAAAAAAAAAAAAAAAAAAAAAAAAAAAAAAAAAAAAAAAAAAAAAAAAAAAAAAAAAAAAAAAAAAAAAAAAAAAAAAAAAAAAAAAAAAAAAAAAAAAAAAAAAAAAAAAAAAAAAAAAAAAAAAAAAAAAAAAAAAAAAAAAAAAAAAAAAAAAAAAAAAAAAAAAAAAAAAAAAAAAAAAAAAAAAAAAAAAAAAAAAAAAAAAAAAAAAAAAAAAAAAAAAAAAAAAAAAAAAAAAAAAAAAAAAAAAAAAAAAAAAAAAAAAAAAAAAAAAAAAAAAAAAAAAAAAAAAAAAAAAAAAAAAAAAAAAAAAAAAAAAAAAAAAAAAAAAAAAAAAAAAAAAAAAAAAAAAAAAAAAAAAAAAAAAAAAAAAAAAAAAAAAAAAAAAAAAAAAAAAAAAAAAAAAAAAAAAAAAAAAAAAAAAAAAAAAAAAAAAAAAAAAAAAAAAAAAAAAAAAAAAAAAAAAAAAAAAAAAAAAAAAAAAAAAAAAAAAAAAAAAAAAAAAAAAAAAAAAAAAAAAAAAAAAAAAAAAAAAAAAAAAAAAAAAAAAAAAAAAAAAAAAAAAAAAAAAAAAAAAAAAAAAAAAAAAAAAAAAAAAAAAAAAAAAAAAAAAAAAAAAAAAAAAAAAAAAAAAAAAAAAAAAAAAAAAAAAAAAAAAAAAAAAAAAAAAAAAAAAAAAAAAAAAAAAAAAAAAAAAAAAAAAAAAAAAAAAAAAAAAAAAAAAAAAAAAAAAAAAAAAAAAAAAAAAAAAAAAAAAAAAAAAAAAAAAAAAAAAAAAAAAAAAAAAAAAAAAAAAAAAAAAAAAAAAAAAAAAAAAAAAAAAAAAAAAAAAAAAAAAAAAAAAAAAAAAAAAAAAAAAAAAAAAAAAAAAAAAAAAAAAAAAAAAAAAAAAAAAAAAAAAAAAAAAAAAAAAAAAAAAAAAAAAAAAAAAAAAAAAAAAAAAAAAAAAAAAAAAAAAAAAAAAAAAAAAAAAAAAAAAAAAAAAAAAAAAAAAAAAAAAAAAAAAAAAAAAAAAAAAAAAAAAAAAAAAAAAAAAAAAAAAAAAAAAAAAAAAAAAAAAAAAAAAAAAAAAAAAAAAAAAAAAAAAAAAAAAAAAAAAAAAAAAAAAAAAAAAAAAAAAAAAAAAAAAAAAAAAAAAAAAAAAAAAAAAAAAAAAAAAAAAAAAAAAAAAAAAAAAAAAAAAAAAAAAAAAAAAAAAAAAAAAAAAAAAAAAAAAAAAAAAAAAAAAAAAAAAAAAAAAAAAAAAAAAAAAAAAAAAAAAAAAAAAAAAAAAAAAAAAAAAAAAAAAAAAAAAAAAAAAAAAAAAAAAAAAAAAAAAAAAAAAAAAAAAAAAAAAAAAAAAAAAAAAAAAAAAAAAAAAAAAAAAAAAAAAAAAAAAAAAAAAAAAAAAAAAAAAAAAAAAAAAAAAAAAAAAAAAAAAAAAAAAAAAAAAAAAAAAAAAAAAAAAAAAAAAAAAAAAAAAAAAAAAAAAAAAAAAAAAAAAAAAAAAAAAAAAAAAAAAAAAAAAAAAAAAAAAAAAAAAAAAAAAAAAAAAAAAAAAAAAAAAAAAAAAAAAAAAAAAAAAAAAAAAAAAAAAAAAAAAAAAAAAAAAAAAAAAAAAAAAAAAAAAAAAAAAAAAAAAAAAAAAAAAAAAAAAAAAAAAAAAAAAAAAAAAAAAAAAAAAAAAAAAAAAAAAAAAAAAAAAAAAAAAAAAAAAAAAAAAAAAAAAAAAAAAAAAAAAAAAAAAAAAAAAAAAAAAAAAAAAAAAAAAAAAAAAAAAAAAAAAAAAAAAAAAAAAAAAAAAAAAAAAAAAAAAAAAAAAAAAAAAAAAAAAAAAAAAAAAAAAAAAAAAAAAAAAAAAAAAAAAAAAAAAAAAAAAAAAAAAAAAAAAAAAAAAAAAAAAAAAAAAAAAAAAAAAAAAAAAAAAAAAAAAAAAAAAAAAAAAAAAAAAAAAAAAAAAAAAAAAAAAAAAAAAAAAAAAAAAAAAAAAAAAAAAAAAAAAAAAAAAAAAAAAAAAAAAAAAAAAAAAAAAAAAAAAAAAAAAAAAAAAAAAAAAAAAAAAAAAAAAAAAAAAAAAAAAAAAAAAAAAAAAAAAAAAAAAAAAAAAAAAAAAAAAAAAAAAAAAAAAAAAAAAAAAAAAAAAAAAAAAAAAAAAAAAAAAAAAAAAAAAAAAAAAAAAAAAAAAAAAAAAAAAAAAAAAAAAAAAAAAAAAAAAAAAAAAAAAAAAAAAAAAAAAAAAAAAAAAAAAAAAAAAAAAAAAAAAAAAAAAAAAAAAAAAAAAAAAAAAAAAAAAAAAAAAAAAAAAAAAAAAAAAAAAAAAAAAAAAAAAAAAAAAAAAAAAAAAAAAAAAAAAAAAAAAAAAAAAAAAAAAAAAAAAAAAAAAAAAAAAAAAAAAAAAAAAAAAAAAAAAAAAAAAAAAAAAAAAAAAAAAAAAAAAAAAAAAAAAAAAAAAAAAAAAAAAAAAAAAAAAAAAAAAAAAAAAAAAAAAAAAAAAAAAAAAAAAAAAAAAAAAAAAAAAAAAAAAAAAAAAAAAAAAAAAAAAAAAAAAAAAAAAAAAAAAAAAAAAAAAAAAAAAAAAAAAAAAAAAAAAAAAAAAAAAAAAAAAAAAAAAAAAAAAAAAAAAAAAAAAAAAAAAAAAAAAAAAAAAAAAAAAAAAAAAAAAAAAAAAAAAAAAAAAAAAAAAAAAAAAAAAAAAAAAAAAAAAAAAAAAAAAAAAAAAAAAAAAAAAAAAAAAAAAAAAAAAAAAAAAAAAAAAAAAAAAAAAAAAAAAAAAAAAAAAAAAAAAAAAAAAAAAAAAAAAAAAAAAAAAAAAAAAAAAAAAAAAAAAAAAAAAAAAAAAAAAAAAAAAAAAAAAAAAAAAAAAAAAAAAAAAAAAAAAAAAAAAAAAAAAAAAAAAAAAAAAAAAAAAAAAAAAAAAAAAAAAAAAAAAAAAAAAAAAAAAAAAAAAAAAAAAAAAAAAAAAAAAAAAAAAAAAAAAAAAAAAAAAAAAAAAAAAAAAAAAAAAAAAAAAAAAAAAAAAAAAAAAAAAAAAAAAAAAAAAAAAAAAAAAAAAAAAAAAAAAAAAAAAAAAAAAAAAAAAAAAAAAAAAAAAAAAAAAAAAAAAAAAAAAAAAAAAAAAAAAAAAAAAAAAAAAAAAAAAAAAAAAAAAAAAAAAAAAAAAAAAAAAAAAAAAAAAAAAAAAAAAAAAAAAAAAAAAAAAAAAAAAAAAAAAAAAAAAAAAAAAAAAAAAAAAAAAAAAAAAAAAAAAAAAAAAAAAAAAAAAAAAAAAAAAAAAAAAAAAAAAAAAAAAAAAAAAAAAAAAAAAAAAAAAAAAAAAAAAAAAAAAAAAAAAAAAAAAAAAAAAAAAAAAAAAAAAAAAAAAAAAAAAAAAAAAAAAAAAAAAAAAAAAAAAAAAAAAAAAAAAAAAAAAAAAAAAAAAAAAAAAAAAAAAAAAAAAAAAAAAAAAAAAAAAAAAAAAAAAAAAAAAAAAAAAAAAAAAAAAAAAAAAAAAAAAAAAAAAAAAAAAAAAAAAAAAAAAAAAAAAAAAAAAAAAAAAAAAAAAAAAAAAAAAAAAAAAAAAAAAAAAAAAAAAAAAAAAAAAAAAAAAAAAAAAAAAAAAAAAAAAAAAAAAAAAAAAAAAAAAAAAAAAAAAAAAAAAAAAAAAAAAAAAAAAAAAAAAAAAAAAAAAAAAAAAAAAAAAAAAAAAAAAAAAAAAAAAAAAAAAAAAAAAAAAAAAAAAAAAAAAAAAAAAAAAAAAAAAAAAAAAAAAAAAAAAAAAAAAAAAAAAAAAAAAAAAAAAAAAAAAAAAAAAAAAAAAAAAAAAAAAAAAAAAAAAAAAAAAAAAAAAAAAAAAAAAAAAAAAAAAAAAAAAAAAAAAAAAAAAAAAAAAAAAAAAAAAAAAAAAAAAAAAAAAAAAAAAAAAAAAAAAAAAAAAAAAAAAAAAAAAAAAAAAAAAAAAAAAAAAAAAAAAAAAAAAAAAAAAAAAAAAAAAAAAAAAAAAAAAAAAAAAAAAAAAAAAAAAAAAAAAAAAAAAAAAAAAAAAAAAAAAAAAAAAAAAAAAAAAAAAAAAAAAAAAAAAAAAAAAAAAAAAAAAAAAAAAAAAAAAAAAAAAAAAAAAAAAAAAAAAAAAAAAAAAAAAAAAAAAAAAAAAAAAAAAAAAAAAAAAAAAAAAAAAAAAAAAAAAAAAAAAAAAAAAAAAAAPZYQHEHHu1m4Bi7urcy11bqOrb7MLt7+X2QoNZe9ohnh4mH5sJ++mkavXPi1vAT2pQUXZAYVUzV54ocPU7UOeWhR14=</c2pa:manifest></metadata><g transform="translate(32.0,32.0) scale(0.5431802575131836)"><defs><linearGradient id="chv-16-0-0" gradientUnits="userSpaceOnUse" x1="-43.215" y1="43.387" x2="-33.277" y2="56.130"><stop offset="0.0000" stop-color="#30598D"></stop><stop offset="0.2500" stop-color="#3767A2"></stop><stop offset="0.5200" stop-color="#6C8FBA"></stop><stop offset="0.8000" stop-color="#35629B"></stop><stop offset="1.0000" stop-color="#2E5788"></stop></linearGradient><linearGradient id="chv-16-0-1" gradientUnits="userSpaceOnUse" x1="43.215" y1="43.387" x2="33.277" y2="56.130"><stop offset="0.0000" stop-color="#30598D"></stop><stop offset="0.2500" stop-color="#3767A2"></stop><stop offset="0.5200" stop-color="#6C8FBA"></stop><stop offset="0.8000" stop-color="#35629B"></stop><stop offset="1.0000" stop-color="#2E5788"></stop></linearGradient><linearGradient id="chv-16-1-0" gradientUnits="userSpaceOnUse" x1="-43.215" y1="115.017" x2="-33.277" y2="127.760"><stop offset="0.0000" stop-color="#182D46"></stop><stop offset="0.2500" stop-color="#1C3451"></stop><stop offset="0.5200" stop-color="#58697F"></stop><stop offset="0.8000" stop-color="#1B324D"></stop><stop offset="1.0000" stop-color="#182C44"></stop></linearGradient><linearGradient id="chv-16-1-1" gradientUnits="userSpaceOnUse" x1="43.215" y1="115.017" x2="33.277" y2="127.760"><stop offset="0.0000" stop-color="#182D46"></stop><stop offset="0.2500" stop-color="#1C3451"></stop><stop offset="0.5200" stop-color="#58697F"></stop><stop offset="0.8000" stop-color="#1B324D"></stop><stop offset="1.0000" stop-color="#182C44"></stop></linearGradient><linearGradient id="chv-16-2-0" gradientUnits="userSpaceOnUse" x1="-43.215" y1="186.654" x2="-33.277" y2="199.397"><stop offset="0.0000" stop-color="#000000"></stop><stop offset="0.2500" stop-color="#000000"></stop><stop offset="0.5200" stop-color="#434343"></stop><stop offset="0.8000" stop-color="#000000"></stop><stop offset="1.0000" stop-color="#000000"></stop></linearGradient><linearGradient id="chv-16-2-1" gradientUnits="userSpaceOnUse" x1="43.215" y1="186.654" x2="33.277" y2="199.397"><stop offset="0.0000" stop-color="#000000"></stop><stop offset="0.2500" stop-color="#000000"></stop><stop offset="0.5200" stop-color="#434343"></stop><stop offset="0.8000" stop-color="#000000"></stop><stop offset="1.0000" stop-color="#000000"></stop></linearGradient><linearGradient id="cad-16" gradientUnits="userSpaceOnUse" x1="0" y1="-54.490056" x2="0" y2="295.299936"><stop offset="0.0000" stop-color="#4581CB"></stop><stop offset="0.3750" stop-color="#4581CB"></stop><stop offset="0.9800" stop-color="#000000"></stop><stop offset="1.0000" stop-color="#000000"></stop></linearGradient><linearGradient id="cadv-16" gradientUnits="userSpaceOnUse" x1="0" y1="-54.490056" x2="0" y2="295.299936"><stop offset="0.0000" stop-color="#76A2D9"></stop><stop offset="0.3750" stop-color="#76A2D9"></stop><stop offset="0.9800" stop-color="#434343"></stop><stop offset="1.0000" stop-color="#434343"></stop></linearGradient></defs><g transform="translate(148.92180000000002,54.4925)">
<path fill="none" stroke="#3767A2" stroke-width="16.16" stroke-linecap="round" stroke-linejoin="miter" stroke-miterlimit="6" d="M -76.4923 79.5867 L 0 19.9307 L 76.4923 79.5867"></path>
<path fill="none" stroke="url(#chv-16-0-0)" stroke-width="16.16" stroke-linecap="round" d="M -76.4923 79.5867 L 0 19.9307"></path>
<path fill="none" stroke="url(#chv-16-0-1)" stroke-width="16.16" stroke-linecap="round" d="M 0 19.9307 L 76.4923 79.5867"></path>
<path fill="none" stroke="#1C3451" stroke-width="16.16" stroke-linecap="round" stroke-linejoin="miter" stroke-miterlimit="6" d="M -76.4923 151.2163 L 0 91.5603 L 76.4923 151.2163"></path>
<path fill="none" stroke="url(#chv-16-1-0)" stroke-width="16.16" stroke-linecap="round" d="M -76.4923 151.2163 L 0 91.5603"></path>
<path fill="none" stroke="url(#chv-16-1-1)" stroke-width="16.16" stroke-linecap="round" d="M 0 91.5603 L 76.4923 151.2163"></path>
<path fill="none" stroke="#000000" stroke-width="16.16" stroke-linecap="round" stroke-linejoin="miter" stroke-miterlimit="6" d="M -76.4923 222.8538 L 0 163.1977 L 76.4923 222.8538"></path>
<path fill="none" stroke="url(#chv-16-2-0)" stroke-width="16.16" stroke-linecap="round" d="M -76.4923 222.8538 L 0 163.1977"></path>
<path fill="none" stroke="url(#chv-16-2-1)" stroke-width="16.16" stroke-linecap="round" d="M 0 163.1977 L 76.4923 222.8538"></path>
<path fill="none" stroke="url(#cad-16)" stroke-width="16.16" stroke-linecap="round" stroke-linejoin="miter" stroke-miterlimit="6" d="M -140.838157 -46.412463 L -140.838157 287.219269 L -10.499617 287.219269"></path>
<path fill="none" stroke="url(#cadv-16)" stroke-width="5.6" stroke-linecap="round" stroke-linejoin="miter" stroke-miterlimit="6" d="M -140.838157 -46.412463 L -140.838157 287.219269 L -10.499617 287.219269"></path>
<path fill="none" stroke="#000000" stroke-width="16.16" stroke-linecap="round" stroke-linejoin="miter" stroke-miterlimit="6" d="M 10.496837 -46.412463 L 140.841798 -46.412463 L 140.841798 287.219269"></path>
<path fill="none" stroke="#434343" stroke-width="5.6" stroke-linecap="round" stroke-linejoin="miter" stroke-miterlimit="6" d="M 10.496837 -46.412463 L 140.841798 -46.412463 L 140.841798 287.219269"></path>
</g></g>
<g transform="translate(254.69276334665366,55.268)"><defs><linearGradient id="lease-16" gradientUnits="userSpaceOnUse" x1="266.512" y1="125.044" x2="322.519" y2="234.491"><stop offset="0.0000" stop-color="#000000"></stop><stop offset="0.3200" stop-color="#000000"></stop><stop offset="0.4100" stop-color="#242424"></stop><stop offset="0.6100" stop-color="#2A2A2A"></stop><stop offset="0.7000" stop-color="#000000"></stop><stop offset="1.0000" stop-color="#000000"></stop></linearGradient><linearGradient id="leaseO-16" gradientUnits="userSpaceOnUse" x1="266.512" y1="125.044" x2="322.519" y2="234.491"><stop offset="0.0000" stop-color="#6B6B6B"></stop><stop offset="0.3200" stop-color="#6B6B6B"></stop><stop offset="0.4100" stop-color="#808080"></stop><stop offset="0.6100" stop-color="#838383"></stop><stop offset="0.7000" stop-color="#6B6B6B"></stop><stop offset="1.0000" stop-color="#6B6B6B"></stop></linearGradient><linearGradient id="lane-16" gradientUnits="userSpaceOnUse" x1="433.169" y1="131.287" x2="482.788" y2="228.252"><stop offset="0.0000" stop-color="#5990D2"></stop><stop offset="0.1400" stop-color="#518ACF"></stop><stop offset="0.2200" stop-color="#417ABF"></stop><stop offset="0.2900" stop-color="#518ACF"></stop><stop offset="0.4000" stop-color="#4581CB"></stop><stop offset="0.4650" stop-color="#396AA7"></stop><stop offset="0.5050" stop-color="#2D5585"></stop><stop offset="0.5450" stop-color="#396AA7"></stop><stop offset="0.6300" stop-color="#437DC5"></stop><stop offset="0.7100" stop-color="#396BA8"></stop><stop offset="0.7800" stop-color="#437EC6"></stop><stop offset="0.8750" stop-color="#3E74B6"></stop><stop offset="1.0000" stop-color="#548CD0"></stop></linearGradient></defs><g transform="scale(1.750547) translate(-216.988281,-151.207031)">
<path fill="url(#leaseO-16)" stroke="url(#leaseO-16)" stroke-width="1.0397" stroke-linejoin="round" paint-order="stroke" fill-rule="nonzero" d="M 216.988281 151.207031 L 225.964844 151.207031 L 225.964844 200.171875 L 240.734375 200.171875 L 240.734375 208.332031 L 216.988281 208.332031 Z M 247.511719 151.207031 L 271.996094 151.207031 L 271.996094 159.367188 L 256.484375 159.367188 L 256.484375 174.464844 L 268.808594 174.464844 L 268.808594 182.625 L 256.484375 182.625 L 256.484375 200.171875 L 271.996094 200.171875 L 271.996094 208.332031 L 247.511719 208.332031 Z M 286.519531 151.207031 L 298.679688 151.207031 L 307.980469 208.332031 L 299.007812 208.332031 L 297.375 196.988281 L 297.375 197.152344 L 287.171875 197.152344 L 285.539062 208.332031 L 277.21875 208.332031 Z M 296.3125 189.398438 L 292.316406 161.160156 L 292.148438 161.160156 L 288.234375 189.398438 Z M 313.203125 194.785156 L 313.203125 191.523438 L 321.691406 191.523438 L 321.691406 195.4375 C 321.691406 199.136719 323.246094 200.988281 326.34375 200.988281 C 327.871094 200.988281 329.023438 200.539062 329.8125 199.644531 C 330.601562 198.742188 330.996094 197.289062 330.996094 195.273438 C 330.996094 192.882812 330.453125 190.773438 329.363281 188.949219 C 328.277344 187.128906 326.261719 184.9375 323.324219 182.378906 C 319.625 179.117188 317.042969 176.164062 315.570312 173.527344 C 314.105469 170.890625 313.371094 167.90625 313.371094 164.589844 C 313.371094 160.074219 314.511719 156.578125 316.796875 154.105469 C 319.082031 151.628906 322.402344 150.386719 326.75 150.386719 C 331.050781 150.386719 334.300781 151.628906 336.503906 154.105469 C 338.710938 156.578125 339.808594 160.125 339.808594 164.753906 L 339.808594 167.117188 L 331.320312 167.117188 L 331.320312 164.179688 C 331.320312 162.226562 330.945312 160.792969 330.179688 159.894531 C 329.417969 159 328.304688 158.550781 326.835938 158.550781 C 323.84375 158.550781 322.347656 160.371094 322.347656 164.019531 C 322.347656 166.085938 322.902344 168.015625 324.019531 169.8125 C 325.132812 171.609375 327.160156 173.78125 330.101562 176.34375 C 333.851562 179.605469 336.4375 182.570312 337.851562 185.238281 C 339.265625 187.902344 339.972656 191.03125 339.972656 194.621094 C 339.972656 199.300781 338.820312 202.894531 336.503906 205.394531 C 334.195312 207.894531 330.832031 209.148438 326.425781 209.148438 C 322.074219 209.148438 318.78125 207.910156 316.550781 205.433594 C 314.320312 202.957031 313.203125 199.40625 313.203125 194.785156 Z M 347.5625 151.207031 L 372.042969 151.207031 L 372.042969 159.367188 L 356.539062 159.367188 L 356.539062 174.464844 L 368.863281 174.464844 L 368.863281 182.625 L 356.539062 182.625 L 356.539062 200.171875 L 372.042969 200.171875 L 372.042969 208.332031 L 347.5625 208.332031 Z M 347.5625 151.207031"></path>
<g transform="translate(-0.3676,-0.3676)"><path fill="url(#lease-16)" fill-rule="nonzero" d="M 216.988281 151.207031 L 225.964844 151.207031 L 225.964844 200.171875 L 240.734375 200.171875 L 240.734375 208.332031 L 216.988281 208.332031 Z M 247.511719 151.207031 L 271.996094 151.207031 L 271.996094 159.367188 L 256.484375 159.367188 L 256.484375 174.464844 L 268.808594 174.464844 L 268.808594 182.625 L 256.484375 182.625 L 256.484375 200.171875 L 271.996094 200.171875 L 271.996094 208.332031 L 247.511719 208.332031 Z M 286.519531 151.207031 L 298.679688 151.207031 L 307.980469 208.332031 L 299.007812 208.332031 L 297.375 196.988281 L 297.375 197.152344 L 287.171875 197.152344 L 285.539062 208.332031 L 277.21875 208.332031 Z M 296.3125 189.398438 L 292.316406 161.160156 L 292.148438 161.160156 L 288.234375 189.398438 Z M 313.203125 194.785156 L 313.203125 191.523438 L 321.691406 191.523438 L 321.691406 195.4375 C 321.691406 199.136719 323.246094 200.988281 326.34375 200.988281 C 327.871094 200.988281 329.023438 200.539062 329.8125 199.644531 C 330.601562 198.742188 330.996094 197.289062 330.996094 195.273438 C 330.996094 192.882812 330.453125 190.773438 329.363281 188.949219 C 328.277344 187.128906 326.261719 184.9375 323.324219 182.378906 C 319.625 179.117188 317.042969 176.164062 315.570312 173.527344 C 314.105469 170.890625 313.371094 167.90625 313.371094 164.589844 C 313.371094 160.074219 314.511719 156.578125 316.796875 154.105469 C 319.082031 151.628906 322.402344 150.386719 326.75 150.386719 C 331.050781 150.386719 334.300781 151.628906 336.503906 154.105469 C 338.710938 156.578125 339.808594 160.125 339.808594 164.753906 L 339.808594 167.117188 L 331.320312 167.117188 L 331.320312 164.179688 C 331.320312 162.226562 330.945312 160.792969 330.179688 159.894531 C 329.417969 159 328.304688 158.550781 326.835938 158.550781 C 323.84375 158.550781 322.347656 160.371094 322.347656 164.019531 C 322.347656 166.085938 322.902344 168.015625 324.019531 169.8125 C 325.132812 171.609375 327.160156 173.78125 330.101562 176.34375 C 333.851562 179.605469 336.4375 182.570312 337.851562 185.238281 C 339.265625 187.902344 339.972656 191.03125 339.972656 194.621094 C 339.972656 199.300781 338.820312 202.894531 336.503906 205.394531 C 334.195312 207.894531 330.832031 209.148438 326.425781 209.148438 C 322.074219 209.148438 318.78125 207.910156 316.550781 205.433594 C 314.320312 202.957031 313.203125 199.40625 313.203125 194.785156 Z M 347.5625 151.207031 L 372.042969 151.207031 L 372.042969 159.367188 L 356.539062 159.367188 L 356.539062 174.464844 L 368.863281 174.464844 L 368.863281 182.625 L 356.539062 182.625 L 356.539062 200.171875 L 372.042969 200.171875 L 372.042969 208.332031 L 347.5625 208.332031 Z M 347.5625 151.207031"></path></g>
<path fill="url(#lane-16)" stroke="url(#lane-16)" stroke-width="1.0397" stroke-linejoin="round" paint-order="stroke" fill-rule="nonzero" d="M 394.242188 151.207031 L 403.21875 151.207031 L 403.21875 200.171875 L 417.992188 200.171875 L 417.992188 208.332031 L 394.242188 208.332031 Z M 431.703125 151.207031 L 443.859375 151.207031 L 453.167969 208.332031 L 444.1875 208.332031 L 442.554688 196.988281 L 442.554688 197.152344 L 432.355469 197.152344 L 430.722656 208.332031 L 422.398438 208.332031 Z M 441.496094 189.398438 L 437.496094 161.160156 L 437.332031 161.160156 L 433.414062 189.398438 Z M 459.9375 151.207031 L 471.203125 151.207031 L 479.933594 185.398438 L 480.097656 185.398438 L 480.097656 151.207031 L 488.09375 151.207031 L 488.09375 208.332031 L 478.871094 208.332031 L 468.101562 166.628906 L 467.9375 166.628906 L 467.9375 208.332031 L 459.9375 208.332031 Z M 497.234375 151.207031 L 521.714844 151.207031 L 521.714844 159.367188 L 506.210938 159.367188 L 506.210938 174.464844 L 518.535156 174.464844 L 518.535156 182.625 L 506.210938 182.625 L 506.210938 200.171875 L 521.714844 200.171875 L 521.714844 208.332031 L 497.234375 208.332031 Z M 497.234375 151.207031"></path>
</g></g>
<defs><linearGradient id="slog-16" gradientUnits="userSpaceOnUse" x1="464.314" y1="77.534" x2="581.464" y2="306.466"><stop offset="0.0000" stop-color="#000000"></stop><stop offset="0.2800" stop-color="#000000"></stop><stop offset="0.3800" stop-color="#4E4E4E"></stop><stop offset="0.5600" stop-color="#5A5A5A"></stop><stop offset="0.6800" stop-color="#1E1E1E"></stop><stop offset="0.7600" stop-color="#000000"></stop><stop offset="1.0000" stop-color="#000000"></stop></linearGradient><linearGradient id="slogO-16" gradientUnits="userSpaceOnUse" x1="464.314" y1="77.534" x2="581.464" y2="306.466"><stop offset="0.0000" stop-color="#595959"></stop><stop offset="0.2800" stop-color="#595959"></stop><stop offset="0.3800" stop-color="#8C8C8C"></stop><stop offset="0.5600" stop-color="#949494"></stop><stop offset="0.6800" stop-color="#6D6D6D"></stop><stop offset="0.7600" stop-color="#595959"></stop><stop offset="1.0000" stop-color="#595959"></stop></linearGradient></defs><g fill="url(#slogO-16)" stroke="url(#slogO-16)" stroke-width="8.490" stroke-linejoin="round" paint-order="stroke" fill-rule="nonzero"><g transform="translate(253.783,198.732) scale(0.019317,-0.019317)"><path d="M58.000 192.000H180.000Q184.000 147.000 215.500 118.000Q247.000 89.000 304.000 89.000Q363.000 89.000 396.000 117.500Q429.000 146.000 429.000 191.000Q429.000 226.000 408.500 248.000Q388.000 270.000 357.500 282.000Q327.000 294.000 273.000 308.000Q205.000 326.000 162.500 344.500Q120.000 363.000 90.000 402.000Q60.000 441.000 60.000 506.000Q60.000 566.000 90.000 611.000Q120.000 656.000 174.000 680.000Q228.000 704.000 299.000 704.000Q400.000 704.000 464.500 653.500Q529.000 603.000 536.000 515.000H410.000Q407.000 553.000 374.000 580.000Q341.000 607.000 287.000 607.000Q238.000 607.000 207.000 582.000Q176.000 557.000 176.000 510.000Q176.000 478.000 195.500 457.500Q215.000 437.000 245.000 425.000Q275.000 413.000 327.000 399.000Q396.000 380.000 439.500 361.000Q483.000 342.000 513.500 302.500Q544.000 263.000 544.000 197.000Q544.000 144.000 515.500 97.000Q487.000 50.000 432.500 21.500Q378.000 -7.000 304.000 -7.000Q234.000 -7.000 178.000 17.500Q122.000 42.000 90.000 87.000Q58.000 132.000 58.000 192.000Z"></path></g><g transform="translate(271.245,198.732) scale(0.019317,-0.019317)"><path d="M37.000 349.000Q37.000 451.000 84.500 532.000Q132.000 613.000 213.500 658.500Q295.000 704.000 392.000 704.000Q490.000 704.000 571.500 658.500Q653.000 613.000 700.000 532.000Q747.000 451.000 747.000 349.000Q747.000 247.000 700.000 165.500Q653.000 84.000 571.500 38.500Q490.000 -7.000 392.000 -7.000Q295.000 -7.000 213.500 38.500Q132.000 84.000 84.500 165.500Q37.000 247.000 37.000 349.000ZM630.000 349.000Q630.000 426.000 599.500 484.000Q569.000 542.000 515.000 573.000Q461.000 604.000 392.000 604.000Q323.000 604.000 269.000 573.000Q215.000 542.000 184.500 484.000Q154.000 426.000 154.000 349.000Q154.000 272.000 184.500 213.500Q215.000 155.000 269.000 123.500Q323.000 92.000 392.000 92.000Q461.000 92.000 515.000 123.500Q569.000 155.000 599.500 213.500Q630.000 272.000 630.000 349.000Z"></path></g><g transform="translate(292.185,198.732) scale(0.019317,-0.019317)"><path d="M189.000 92.000H424.000V0.000H75.000V695.000H189.000Z"></path></g><g transform="translate(306.557,198.732) scale(0.019317,-0.019317)"><path d="M188.000 695.000V252.000Q188.000 173.000 229.500 133.000Q271.000 93.000 345.000 93.000Q420.000 93.000 461.500 133.000Q503.000 173.000 503.000 252.000V695.000H617.000V254.000Q617.000 169.000 580.000 110.000Q543.000 51.000 481.000 22.000Q419.000 -7.000 344.000 -7.000Q269.000 -7.000 207.500 22.000Q146.000 51.000 110.000 110.000Q74.000 169.000 74.000 254.000V695.000Z"></path></g><g transform="translate(325.681,198.732) scale(0.019317,-0.019317)"><path d="M524.000 695.000V602.000H339.000V0.000H225.000V602.000H39.000V695.000Z"></path></g><g transform="translate(342.371,198.732) scale(0.019317,-0.019317)"><path d="M189.000 695.000V0.000H75.000V695.000Z"></path></g><g transform="translate(353.266,198.732) scale(0.019317,-0.019317)"><path d="M37.000 349.000Q37.000 451.000 84.500 532.000Q132.000 613.000 213.500 658.500Q295.000 704.000 392.000 704.000Q490.000 704.000 571.500 658.500Q653.000 613.000 700.000 532.000Q747.000 451.000 747.000 349.000Q747.000 247.000 700.000 165.500Q653.000 84.000 571.500 38.500Q490.000 -7.000 392.000 -7.000Q295.000 -7.000 213.500 38.500Q132.000 84.000 84.500 165.500Q37.000 247.000 37.000 349.000ZM630.000 349.000Q630.000 426.000 599.500 484.000Q569.000 542.000 515.000 573.000Q461.000 604.000 392.000 604.000Q323.000 604.000 269.000 573.000Q215.000 542.000 184.500 484.000Q154.000 426.000 154.000 349.000Q154.000 272.000 184.500 213.500Q215.000 155.000 269.000 123.500Q323.000 92.000 392.000 92.000Q461.000 92.000 515.000 123.500Q569.000 155.000 599.500 213.500Q630.000 272.000 630.000 349.000Z"></path></g><g transform="translate(374.205,198.732) scale(0.019317,-0.019317)"><path d="M646.000 0.000H532.000L189.000 519.000V0.000H75.000V696.000H189.000L532.000 178.000V696.000H646.000Z"></path></g><g transform="translate(393.928,198.732) scale(0.019317,-0.019317)"><path d="M58.000 192.000H180.000Q184.000 147.000 215.500 118.000Q247.000 89.000 304.000 89.000Q363.000 89.000 396.000 117.500Q429.000 146.000 429.000 191.000Q429.000 226.000 408.500 248.000Q388.000 270.000 357.500 282.000Q327.000 294.000 273.000 308.000Q205.000 326.000 162.500 344.500Q120.000 363.000 90.000 402.000Q60.000 441.000 60.000 506.000Q60.000 566.000 90.000 611.000Q120.000 656.000 174.000 680.000Q228.000 704.000 299.000 704.000Q400.000 704.000 464.500 653.500Q529.000 603.000 536.000 515.000H410.000Q407.000 553.000 374.000 580.000Q341.000 607.000 287.000 607.000Q238.000 607.000 207.000 582.000Q176.000 557.000 176.000 510.000Q176.000 478.000 195.500 457.500Q215.000 437.000 245.000 425.000Q275.000 413.000 327.000 399.000Q396.000 380.000 439.500 361.000Q483.000 342.000 513.500 302.500Q544.000 263.000 544.000 197.000Q544.000 144.000 515.500 97.000Q487.000 50.000 432.500 21.500Q378.000 -7.000 304.000 -7.000Q234.000 -7.000 178.000 17.500Q122.000 42.000 90.000 87.000Q58.000 132.000 58.000 192.000Z"></path></g><g transform="translate(422.208,198.732) scale(0.019317,-0.019317)"><path d="M189.000 92.000H424.000V0.000H75.000V695.000H189.000Z"></path></g><g transform="translate(436.580,198.732) scale(0.019317,-0.019317)"><path d="M37.000 349.000Q37.000 451.000 84.500 532.000Q132.000 613.000 213.500 658.500Q295.000 704.000 392.000 704.000Q490.000 704.000 571.500 658.500Q653.000 613.000 700.000 532.000Q747.000 451.000 747.000 349.000Q747.000 247.000 700.000 165.500Q653.000 84.000 571.500 38.500Q490.000 -7.000 392.000 -7.000Q295.000 -7.000 213.500 38.500Q132.000 84.000 84.500 165.500Q37.000 247.000 37.000 349.000ZM630.000 349.000Q630.000 426.000 599.500 484.000Q569.000 542.000 515.000 573.000Q461.000 604.000 392.000 604.000Q323.000 604.000 269.000 573.000Q215.000 542.000 184.500 484.000Q154.000 426.000 154.000 349.000Q154.000 272.000 184.500 213.500Q215.000 155.000 269.000 123.500Q323.000 92.000 392.000 92.000Q461.000 92.000 515.000 123.500Q569.000 155.000 599.500 213.500Q630.000 272.000 630.000 349.000Z"></path></g><g transform="translate(457.520,198.732) scale(0.019317,-0.019317)"><path d="M392.000 704.000Q503.000 704.000 589.500 649.500Q676.000 595.000 715.000 495.000H578.000Q551.000 550.000 503.000 577.000Q455.000 604.000 392.000 604.000Q323.000 604.000 269.000 573.000Q215.000 542.000 184.500 484.000Q154.000 426.000 154.000 349.000Q154.000 272.000 184.500 214.000Q215.000 156.000 269.000 124.500Q323.000 93.000 392.000 93.000Q455.000 93.000 503.000 120.000Q551.000 147.000 578.000 202.000H715.000Q676.000 102.000 589.500 48.000Q503.000 -6.000 392.000 -6.000Q294.000 -6.000 213.000 39.500Q132.000 85.000 84.500 166.000Q37.000 247.000 37.000 349.000Q37.000 451.000 84.500 532.000Q132.000 613.000 213.500 658.500Q295.000 704.000 392.000 704.000Z"></path></g><g transform="translate(478.247,198.732) scale(0.019317,-0.019317)"><path d="M494.000 142.000H203.000L153.000 0.000H34.000L283.000 696.000H415.000L664.000 0.000H544.000ZM462.000 235.000 349.000 558.000 235.000 235.000Z"></path></g><g transform="translate(497.506,198.732) scale(0.019317,-0.019317)"><path d="M524.000 695.000V602.000H339.000V0.000H225.000V602.000H39.000V695.000Z"></path></g><g transform="translate(514.196,198.732) scale(0.019317,-0.019317)"><path d="M189.000 695.000V0.000H75.000V695.000Z"></path></g><g transform="translate(525.091,198.732) scale(0.019317,-0.019317)"><path d="M674.000 695.000 413.000 0.000H281.000L19.000 695.000H141.000L347.000 117.000L554.000 695.000Z"></path></g><g transform="translate(544.292,198.732) scale(0.019317,-0.019317)"><path d="M189.000 603.000V399.000H429.000V306.000H189.000V93.000H459.000V0.000H75.000V696.000H459.000V603.000Z"></path></g><g transform="translate(560.209,198.732) scale(0.019317,-0.019317)"><path d="M58.000 192.000H180.000Q184.000 147.000 215.500 118.000Q247.000 89.000 304.000 89.000Q363.000 89.000 396.000 117.500Q429.000 146.000 429.000 191.000Q429.000 226.000 408.500 248.000Q388.000 270.000 357.500 282.000Q327.000 294.000 273.000 308.000Q205.000 326.000 162.500 344.500Q120.000 363.000 90.000 402.000Q60.000 441.000 60.000 506.000Q60.000 566.000 90.000 611.000Q120.000 656.000 174.000 680.000Q228.000 704.000 299.000 704.000Q400.000 704.000 464.500 653.500Q529.000 603.000 536.000 515.000H410.000Q407.000 553.000 374.000 580.000Q341.000 607.000 287.000 607.000Q238.000 607.000 207.000 582.000Q176.000 557.000 176.000 510.000Q176.000 478.000 195.500 457.500Q215.000 437.000 245.000 425.000Q275.000 413.000 327.000 399.000Q396.000 380.000 439.500 361.000Q483.000 342.000 513.500 302.500Q544.000 263.000 544.000 197.000Q544.000 144.000 515.500 97.000Q487.000 50.000 432.500 21.500Q378.000 -7.000 304.000 -7.000Q234.000 -7.000 178.000 17.500Q122.000 42.000 90.000 87.000Q58.000 132.000 58.000 192.000Z"></path></g><g transform="translate(588.490,198.732) scale(0.019317,-0.019317)"><path d="M189.000 695.000V0.000H75.000V695.000Z"></path></g><g transform="translate(599.385,198.732) scale(0.019317,-0.019317)"><path d="M646.000 0.000H532.000L189.000 519.000V0.000H75.000V696.000H189.000L532.000 178.000V696.000H646.000Z"></path></g><g transform="translate(619.107,198.732) scale(0.019317,-0.019317)"><path d="M524.000 695.000V602.000H339.000V0.000H225.000V602.000H39.000V695.000Z"></path></g><g transform="translate(635.797,198.732) scale(0.019317,-0.019317)"><path d="M189.000 603.000V399.000H429.000V306.000H189.000V93.000H459.000V0.000H75.000V696.000H459.000V603.000Z"></path></g><g transform="translate(651.714,198.732) scale(0.019317,-0.019317)"><path d="M189.000 92.000H424.000V0.000H75.000V695.000H189.000Z"></path></g><g transform="translate(666.086,198.732) scale(0.019317,-0.019317)"><path d="M189.000 92.000H424.000V0.000H75.000V695.000H189.000Z"></path></g><g transform="translate(680.458,198.732) scale(0.019317,-0.019317)"><path d="M189.000 695.000V0.000H75.000V695.000Z"></path></g><g transform="translate(691.353,198.732) scale(0.019317,-0.019317)"><path d="M578.000 495.000Q551.000 547.000 503.000 573.500Q455.000 600.000 392.000 600.000Q323.000 600.000 269.000 569.000Q215.000 538.000 184.500 481.000Q154.000 424.000 154.000 349.000Q154.000 274.000 184.500 216.500Q215.000 159.000 269.000 128.000Q323.000 97.000 392.000 97.000Q485.000 97.000 543.000 149.000Q601.000 201.000 614.000 290.000H353.000V381.000H736.000V292.000Q725.000 211.000 678.500 143.000Q632.000 75.000 557.500 34.500Q483.000 -6.000 392.000 -6.000Q294.000 -6.000 213.000 39.500Q132.000 85.000 84.500 166.000Q37.000 247.000 37.000 349.000Q37.000 451.000 84.500 532.000Q132.000 613.000 213.500 658.500Q295.000 704.000 392.000 704.000Q503.000 704.000 589.500 649.500Q676.000 595.000 715.000 495.000Z"></path></g><g transform="translate(712.080,198.732) scale(0.019317,-0.019317)"><path d="M189.000 603.000V399.000H429.000V306.000H189.000V93.000H459.000V0.000H75.000V696.000H459.000V603.000Z"></path></g><g transform="translate(727.998,198.732) scale(0.019317,-0.019317)"><path d="M646.000 0.000H532.000L189.000 519.000V0.000H75.000V696.000H189.000L532.000 178.000V696.000H646.000Z"></path></g><g transform="translate(747.720,198.732) scale(0.019317,-0.019317)"><path d="M524.000 695.000V602.000H339.000V0.000H225.000V602.000H39.000V695.000Z"></path></g><g transform="translate(764.410,198.732) scale(0.019317,-0.019317)"><path d="M189.000 603.000V399.000H429.000V306.000H189.000V93.000H459.000V0.000H75.000V696.000H459.000V603.000Z"></path></g><g transform="translate(780.328,198.732) scale(0.019317,-0.019317)"><path d="M58.000 192.000H180.000Q184.000 147.000 215.500 118.000Q247.000 89.000 304.000 89.000Q363.000 89.000 396.000 117.500Q429.000 146.000 429.000 191.000Q429.000 226.000 408.500 248.000Q388.000 270.000 357.500 282.000Q327.000 294.000 273.000 308.000Q205.000 326.000 162.500 344.500Q120.000 363.000 90.000 402.000Q60.000 441.000 60.000 506.000Q60.000 566.000 90.000 611.000Q120.000 656.000 174.000 680.000Q228.000 704.000 299.000 704.000Q400.000 704.000 464.500 653.500Q529.000 603.000 536.000 515.000H410.000Q407.000 553.000 374.000 580.000Q341.000 607.000 287.000 607.000Q238.000 607.000 207.000 582.000Q176.000 557.000 176.000 510.000Q176.000 478.000 195.500 457.500Q215.000 437.000 245.000 425.000Q275.000 413.000 327.000 399.000Q396.000 380.000 439.500 361.000Q483.000 342.000 513.500 302.500Q544.000 263.000 544.000 197.000Q544.000 144.000 515.500 97.000Q487.000 50.000 432.500 21.500Q378.000 -7.000 304.000 -7.000Q234.000 -7.000 178.000 17.500Q122.000 42.000 90.000 87.000Q58.000 132.000 58.000 192.000Z"></path></g></g><g transform="translate(-0.0580,-0.0580)" fill="url(#slog-16)" fill-rule="nonzero"><g transform="translate(253.783,198.732) scale(0.019317,-0.019317)"><path d="M58.000 192.000H180.000Q184.000 147.000 215.500 118.000Q247.000 89.000 304.000 89.000Q363.000 89.000 396.000 117.500Q429.000 146.000 429.000 191.000Q429.000 226.000 408.500 248.000Q388.000 270.000 357.500 282.000Q327.000 294.000 273.000 308.000Q205.000 326.000 162.500 344.500Q120.000 363.000 90.000 402.000Q60.000 441.000 60.000 506.000Q60.000 566.000 90.000 611.000Q120.000 656.000 174.000 680.000Q228.000 704.000 299.000 704.000Q400.000 704.000 464.500 653.500Q529.000 603.000 536.000 515.000H410.000Q407.000 553.000 374.000 580.000Q341.000 607.000 287.000 607.000Q238.000 607.000 207.000 582.000Q176.000 557.000 176.000 510.000Q176.000 478.000 195.500 457.500Q215.000 437.000 245.000 425.000Q275.000 413.000 327.000 399.000Q396.000 380.000 439.500 361.000Q483.000 342.000 513.500 302.500Q544.000 263.000 544.000 197.000Q544.000 144.000 515.500 97.000Q487.000 50.000 432.500 21.500Q378.000 -7.000 304.000 -7.000Q234.000 -7.000 178.000 17.500Q122.000 42.000 90.000 87.000Q58.000 132.000 58.000 192.000Z"></path></g><g transform="translate(271.245,198.732) scale(0.019317,-0.019317)"><path d="M37.000 349.000Q37.000 451.000 84.500 532.000Q132.000 613.000 213.500 658.500Q295.000 704.000 392.000 704.000Q490.000 704.000 571.500 658.500Q653.000 613.000 700.000 532.000Q747.000 451.000 747.000 349.000Q747.000 247.000 700.000 165.500Q653.000 84.000 571.500 38.500Q490.000 -7.000 392.000 -7.000Q295.000 -7.000 213.500 38.500Q132.000 84.000 84.500 165.500Q37.000 247.000 37.000 349.000ZM630.000 349.000Q630.000 426.000 599.500 484.000Q569.000 542.000 515.000 573.000Q461.000 604.000 392.000 604.000Q323.000 604.000 269.000 573.000Q215.000 542.000 184.500 484.000Q154.000 426.000 154.000 349.000Q154.000 272.000 184.500 213.500Q215.000 155.000 269.000 123.500Q323.000 92.000 392.000 92.000Q461.000 92.000 515.000 123.500Q569.000 155.000 599.500 213.500Q630.000 272.000 630.000 349.000Z"></path></g><g transform="translate(292.185,198.732) scale(0.019317,-0.019317)"><path d="M189.000 92.000H424.000V0.000H75.000V695.000H189.000Z"></path></g><g transform="translate(306.557,198.732) scale(0.019317,-0.019317)"><path d="M188.000 695.000V252.000Q188.000 173.000 229.500 133.000Q271.000 93.000 345.000 93.000Q420.000 93.000 461.500 133.000Q503.000 173.000 503.000 252.000V695.000H617.000V254.000Q617.000 169.000 580.000 110.000Q543.000 51.000 481.000 22.000Q419.000 -7.000 344.000 -7.000Q269.000 -7.000 207.500 22.000Q146.000 51.000 110.000 110.000Q74.000 169.000 74.000 254.000V695.000Z"></path></g><g transform="translate(325.681,198.732) scale(0.019317,-0.019317)"><path d="M524.000 695.000V602.000H339.000V0.000H225.000V602.000H39.000V695.000Z"></path></g><g transform="translate(342.371,198.732) scale(0.019317,-0.019317)"><path d="M189.000 695.000V0.000H75.000V695.000Z"></path></g><g transform="translate(353.266,198.732) scale(0.019317,-0.019317)"><path d="M37.000 349.000Q37.000 451.000 84.500 532.000Q132.000 613.000 213.500 658.500Q295.000 704.000 392.000 704.000Q490.000 704.000 571.500 658.500Q653.000 613.000 700.000 532.000Q747.000 451.000 747.000 349.000Q747.000 247.000 700.000 165.500Q653.000 84.000 571.500 38.500Q490.000 -7.000 392.000 -7.000Q295.000 -7.000 213.500 38.500Q132.000 84.000 84.500 165.500Q37.000 247.000 37.000 349.000ZM630.000 349.000Q630.000 426.000 599.500 484.000Q569.000 542.000 515.000 573.000Q461.000 604.000 392.000 604.000Q323.000 604.000 269.000 573.000Q215.000 542.000 184.500 484.000Q154.000 426.000 154.000 349.000Q154.000 272.000 184.500 213.500Q215.000 155.000 269.000 123.500Q323.000 92.000 392.000 92.000Q461.000 92.000 515.000 123.500Q569.000 155.000 599.500 213.500Q630.000 272.000 630.000 349.000Z"></path></g><g transform="translate(374.205,198.732) scale(0.019317,-0.019317)"><path d="M646.000 0.000H532.000L189.000 519.000V0.000H75.000V696.000H189.000L532.000 178.000V696.000H646.000Z"></path></g><g transform="translate(393.928,198.732) scale(0.019317,-0.019317)"><path d="M58.000 192.000H180.000Q184.000 147.000 215.500 118.000Q247.000 89.000 304.000 89.000Q363.000 89.000 396.000 117.500Q429.000 146.000 429.000 191.000Q429.000 226.000 408.500 248.000Q388.000 270.000 357.500 282.000Q327.000 294.000 273.000 308.000Q205.000 326.000 162.500 344.500Q120.000 363.000 90.000 402.000Q60.000 441.000 60.000 506.000Q60.000 566.000 90.000 611.000Q120.000 656.000 174.000 680.000Q228.000 704.000 299.000 704.000Q400.000 704.000 464.500 653.500Q529.000 603.000 536.000 515.000H410.000Q407.000 553.000 374.000 580.000Q341.000 607.000 287.000 607.000Q238.000 607.000 207.000 582.000Q176.000 557.000 176.000 510.000Q176.000 478.000 195.500 457.500Q215.000 437.000 245.000 425.000Q275.000 413.000 327.000 399.000Q396.000 380.000 439.500 361.000Q483.000 342.000 513.500 302.500Q544.000 263.000 544.000 197.000Q544.000 144.000 515.500 97.000Q487.000 50.000 432.500 21.500Q378.000 -7.000 304.000 -7.000Q234.000 -7.000 178.000 17.500Q122.000 42.000 90.000 87.000Q58.000 132.000 58.000 192.000Z"></path></g><g transform="translate(422.208,198.732) scale(0.019317,-0.019317)"><path d="M189.000 92.000H424.000V0.000H75.000V695.000H189.000Z"></path></g><g transform="translate(436.580,198.732) scale(0.019317,-0.019317)"><path d="M37.000 349.000Q37.000 451.000 84.500 532.000Q132.000 613.000 213.500 658.500Q295.000 704.000 392.000 704.000Q490.000 704.000 571.500 658.500Q653.000 613.000 700.000 532.000Q747.000 451.000 747.000 349.000Q747.000 247.000 700.000 165.500Q653.000 84.000 571.500 38.500Q490.000 -7.000 392.000 -7.000Q295.000 -7.000 213.500 38.500Q132.000 84.000 84.500 165.500Q37.000 247.000 37.000 349.000ZM630.000 349.000Q630.000 426.000 599.500 484.000Q569.000 542.000 515.000 573.000Q461.000 604.000 392.000 604.000Q323.000 604.000 269.000 573.000Q215.000 542.000 184.500 484.000Q154.000 426.000 154.000 349.000Q154.000 272.000 184.500 213.500Q215.000 155.000 269.000 123.500Q323.000 92.000 392.000 92.000Q461.000 92.000 515.000 123.500Q569.000 155.000 599.500 213.500Q630.000 272.000 630.000 349.000Z"></path></g><g transform="translate(457.520,198.732) scale(0.019317,-0.019317)"><path d="M392.000 704.000Q503.000 704.000 589.500 649.500Q676.000 595.000 715.000 495.000H578.000Q551.000 550.000 503.000 577.000Q455.000 604.000 392.000 604.000Q323.000 604.000 269.000 573.000Q215.000 542.000 184.500 484.000Q154.000 426.000 154.000 349.000Q154.000 272.000 184.500 214.000Q215.000 156.000 269.000 124.500Q323.000 93.000 392.000 93.000Q455.000 93.000 503.000 120.000Q551.000 147.000 578.000 202.000H715.000Q676.000 102.000 589.500 48.000Q503.000 -6.000 392.000 -6.000Q294.000 -6.000 213.000 39.500Q132.000 85.000 84.500 166.000Q37.000 247.000 37.000 349.000Q37.000 451.000 84.500 532.000Q132.000 613.000 213.500 658.500Q295.000 704.000 392.000 704.000Z"></path></g><g transform="translate(478.247,198.732) scale(0.019317,-0.019317)"><path d="M494.000 142.000H203.000L153.000 0.000H34.000L283.000 696.000H415.000L664.000 0.000H544.000ZM462.000 235.000 349.000 558.000 235.000 235.000Z"></path></g><g transform="translate(497.506,198.732) scale(0.019317,-0.019317)"><path d="M524.000 695.000V602.000H339.000V0.000H225.000V602.000H39.000V695.000Z"></path></g><g transform="translate(514.196,198.732) scale(0.019317,-0.019317)"><path d="M189.000 695.000V0.000H75.000V695.000Z"></path></g><g transform="translate(525.091,198.732) scale(0.019317,-0.019317)"><path d="M674.000 695.000 413.000 0.000H281.000L19.000 695.000H141.000L347.000 117.000L554.000 695.000Z"></path></g><g transform="translate(544.292,198.732) scale(0.019317,-0.019317)"><path d="M189.000 603.000V399.000H429.000V306.000H189.000V93.000H459.000V0.000H75.000V696.000H459.000V603.000Z"></path></g><g transform="translate(560.209,198.732) scale(0.019317,-0.019317)"><path d="M58.000 192.000H180.000Q184.000 147.000 215.500 118.000Q247.000 89.000 304.000 89.000Q363.000 89.000 396.000 117.500Q429.000 146.000 429.000 191.000Q429.000 226.000 408.500 248.000Q388.000 270.000 357.500 282.000Q327.000 294.000 273.000 308.000Q205.000 326.000 162.500 344.500Q120.000 363.000 90.000 402.000Q60.000 441.000 60.000 506.000Q60.000 566.000 90.000 611.000Q120.000 656.000 174.000 680.000Q228.000 704.000 299.000 704.000Q400.000 704.000 464.500 653.500Q529.000 603.000 536.000 515.000H410.000Q407.000 553.000 374.000 580.000Q341.000 607.000 287.000 607.000Q238.000 607.000 207.000 582.000Q176.000 557.000 176.000 510.000Q176.000 478.000 195.500 457.500Q215.000 437.000 245.000 425.000Q275.000 413.000 327.000 399.000Q396.000 380.000 439.500 361.000Q483.000 342.000 513.500 302.500Q544.000 263.000 544.000 197.000Q544.000 144.000 515.500 97.000Q487.000 50.000 432.500 21.500Q378.000 -7.000 304.000 -7.000Q234.000 -7.000 178.000 17.500Q122.000 42.000 90.000 87.000Q58.000 132.000 58.000 192.000Z"></path></g><g transform="translate(588.490,198.732) scale(0.019317,-0.019317)"><path d="M189.000 695.000V0.000H75.000V695.000Z"></path></g><g transform="translate(599.385,198.732) scale(0.019317,-0.019317)"><path d="M646.000 0.000H532.000L189.000 519.000V0.000H75.000V696.000H189.000L532.000 178.000V696.000H646.000Z"></path></g><g transform="translate(619.107,198.732) scale(0.019317,-0.019317)"><path d="M524.000 695.000V602.000H339.000V0.000H225.000V602.000H39.000V695.000Z"></path></g><g transform="translate(635.797,198.732) scale(0.019317,-0.019317)"><path d="M189.000 603.000V399.000H429.000V306.000H189.000V93.000H459.000V0.000H75.000V696.000H459.000V603.000Z"></path></g><g transform="translate(651.714,198.732) scale(0.019317,-0.019317)"><path d="M189.000 92.000H424.000V0.000H75.000V695.000H189.000Z"></path></g><g transform="translate(666.086,198.732) scale(0.019317,-0.019317)"><path d="M189.000 92.000H424.000V0.000H75.000V695.000H189.000Z"></path></g><g transform="translate(680.458,198.732) scale(0.019317,-0.019317)"><path d="M189.000 695.000V0.000H75.000V695.000Z"></path></g><g transform="translate(691.353,198.732) scale(0.019317,-0.019317)"><path d="M578.000 495.000Q551.000 547.000 503.000 573.500Q455.000 600.000 392.000 600.000Q323.000 600.000 269.000 569.000Q215.000 538.000 184.500 481.000Q154.000 424.000 154.000 349.000Q154.000 274.000 184.500 216.500Q215.000 159.000 269.000 128.000Q323.000 97.000 392.000 97.000Q485.000 97.000 543.000 149.000Q601.000 201.000 614.000 290.000H353.000V381.000H736.000V292.000Q725.000 211.000 678.500 143.000Q632.000 75.000 557.500 34.500Q483.000 -6.000 392.000 -6.000Q294.000 -6.000 213.000 39.500Q132.000 85.000 84.500 166.000Q37.000 247.000 37.000 349.000Q37.000 451.000 84.500 532.000Q132.000 613.000 213.500 658.500Q295.000 704.000 392.000 704.000Q503.000 704.000 589.500 649.500Q676.000 595.000 715.000 495.000Z"></path></g><g transform="translate(712.080,198.732) scale(0.019317,-0.019317)"><path d="M189.000 603.000V399.000H429.000V306.000H189.000V93.000H459.000V0.000H75.000V696.000H459.000V603.000Z"></path></g><g transform="translate(727.998,198.732) scale(0.019317,-0.019317)"><path d="M646.000 0.000H532.000L189.000 519.000V0.000H75.000V696.000H189.000L532.000 178.000V696.000H646.000Z"></path></g><g transform="translate(747.720,198.732) scale(0.019317,-0.019317)"><path d="M524.000 695.000V602.000H339.000V0.000H225.000V602.000H39.000V695.000Z"></path></g><g transform="translate(764.410,198.732) scale(0.019317,-0.019317)"><path d="M189.000 603.000V399.000H429.000V306.000H189.000V93.000H459.000V0.000H75.000V696.000H459.000V603.000Z"></path></g><g transform="translate(780.328,198.732) scale(0.019317,-0.019317)"><path d="M58.000 192.000H180.000Q184.000 147.000 215.500 118.000Q247.000 89.000 304.000 89.000Q363.000 89.000 396.000 117.500Q429.000 146.000 429.000 191.000Q429.000 226.000 408.500 248.000Q388.000 270.000 357.500 282.000Q327.000 294.000 273.000 308.000Q205.000 326.000 162.500 344.500Q120.000 363.000 90.000 402.000Q60.000 441.000 60.000 506.000Q60.000 566.000 90.000 611.000Q120.000 656.000 174.000 680.000Q228.000 704.000 299.000 704.000Q400.000 704.000 464.500 653.500Q529.000 603.000 536.000 515.000H410.000Q407.000 553.000 374.000 580.000Q341.000 607.000 287.000 607.000Q238.000 607.000 207.000 582.000Q176.000 557.000 176.000 510.000Q176.000 478.000 195.500 457.500Q215.000 437.000 245.000 425.000Q275.000 413.000 327.000 399.000Q396.000 380.000 439.500 361.000Q483.000 342.000 513.500 302.500Q544.000 263.000 544.000 197.000Q544.000 144.000 515.500 97.000Q487.000 50.000 432.500 21.500Q378.000 -7.000 304.000 -7.000Q234.000 -7.000 178.000 17.500Q122.000 42.000 90.000 87.000Q58.000 132.000 58.000 192.000Z"></path></g></g></svg>